<?xml version="1.0" standalone="no"?>
<!DOCTYPE svg PUBLIC "-//W3C//DTD SVG 20010904//EN"
 "http://www.w3.org/TR/2001/REC-SVG-20010904/DTD/svg10.dtd">
<svg version="1.0" xmlns="http://www.w3.org/2000/svg"
 width="512.000000pt" height="512.000000pt" viewBox="0 0 512.000000 512.000000"
 preserveAspectRatio="xMidYMid meet">

<g transform="translate(0.000000,512.000000) scale(0.100000,-0.100000)"
fill="#000000" stroke="none">
<path d="M263 4857 l-263 -262 0 -273 0 -273 25 -24 c24 -25 24 -25 240 -25
l215 0 0 -1520 0 -1520 -95 0 c-88 0 -98 -2 -120 -25 -23 -22 -25 -32 -25
-120 l0 -95 -95 0 c-88 0 -98 -2 -120 -25 -33 -32 -33 -78 0 -110 l24 -25 976
0 975 0 0 -255 0 -256 25 -24 c32 -33 78 -33 110 0 24 23 25 29 25 160 l0 135
1454 0 c1370 0 1455 1 1475 17 12 10 24 35 27 55 5 30 2 41 -19 62 l-26 26
-201 0 c-110 0 -200 2 -200 5 0 3 101 233 225 511 124 279 225 517 225 531 0
39 -38 66 -142 102 l-98 33 0 505 0 504 -25 24 -24 25 -1149 0 c-1117 0 -1150
-1 -1173 -19 l-24 -19 -5 -513 -5 -513 -95 -34 c-105 -37 -140 -62 -140 -101
0 -14 90 -254 199 -533 l198 -508 -238 0 -239 0 0 95 c0 88 -2 98 -25 120
l-24 25 -256 0 -255 0 0 95 c0 88 -2 98 -25 120 -22 23 -32 25 -120 25 l-95 0
0 1520 0 1520 1119 0 1120 0 3 -227 c3 -220 4 -230 28 -277 14 -27 47 -68 74
-90 129 -107 131 -110 131 -165 0 -44 -4 -55 -33 -83 -28 -28 -40 -33 -80 -33
-44 0 -56 6 -152 78 -105 78 -137 90 -171 64 -27 -20 -41 -56 -34 -87 9 -43
213 -193 285 -210 129 -31 256 27 318 145 22 41 26 63 26 125 0 94 -31 160
-101 217 -26 21 -67 57 -90 79 l-43 41 0 212 0 211 215 0 c216 0 216 0 240 25
l25 24 0 271 c0 268 0 271 -22 293 -21 21 -158 45 -1478 265 l-1455 242 -380
0 -380 0 -262 -263z m695 -56 l-143 -160 -87 0 -88 -1 0 160 0 160 230 0 231
0 -143 -159z m1327 -11 l880 -148 -902 -1 -903 -1 0 150 c0 149 0 150 23 149
12 0 418 -67 902 -149z m-1805 -50 l0 -100 -102 0 -103 0 100 100 c55 55 101
100 102 100 2 0 3 -45 3 -100z m717 -97 c-3 -2 -41 -3 -85 -1 l-80 3 81 91 82
91 3 -90 c1 -49 1 -91 -1 -94z m2883 -323 l0 -160 -1960 0 -1960 0 0 160 0
160 1960 0 1960 0 0 -160z m-2992 -412 c-46 -51 -164 -182 -262 -290 -98 -109
-180 -198 -182 -198 -2 0 -4 131 -4 290 l0 290 266 0 266 0 -84 -92z m110
-947 l-3 -281 -262 262 -262 263 262 292 262 291 3 -273 c1 -151 1 -400 0
-554z m-67 -526 c-21 -22 -140 -154 -265 -293 l-226 -252 0 557 0 558 265
-265 265 -265 -39 -40z m2469 -127 l0 -253 -473 -167 c-260 -93 -476 -168
-480 -168 -4 0 -7 189 -7 420 l0 420 480 0 480 0 0 -252z m1120 -169 c0 -396
-1 -420 -17 -414 -10 3 -225 79 -478 168 l-460 162 -3 253 -2 252 480 0 480 0
0 -421z m-3522 -698 l-3 -281 -262 262 -262 263 262 291 262 291 3 -273 c1
-150 1 -399 0 -553z m3037 278 c297 -104 574 -202 615 -216 41 -14 76 -27 78
-28 2 -2 -96 -225 -216 -496 l-220 -494 -842 0 -843 0 -139 355 c-76 195 -162
416 -192 491 l-53 137 431 153 c237 84 514 183 616 220 102 37 194 68 205 68
11 1 263 -85 560 -190z m-3330 -499 l260 -260 -263 0 -262 0 0 260 c0 143 1
260 3 260 1 0 119 -117 262 -260z m535 -460 l0 -40 -520 0 -520 0 0 40 0 40
520 0 520 0 0 -40z"/>
<path d="M2825 2455 l-25 -24 0 -271 0 -271 25 -24 c15 -16 36 -25 55 -25 19
0 40 9 55 25 l25 24 0 271 0 271 -25 24 c-15 16 -36 25 -55 25 -19 0 -40 -9
-55 -25z"/>
<path d="M3225 2455 c-25 -24 -25 -26 -25 -215 0 -189 0 -191 25 -215 15 -16
36 -25 55 -25 19 0 40 9 55 25 25 24 25 26 25 215 0 189 0 191 -25 215 -15 16
-36 25 -55 25 -19 0 -40 -9 -55 -25z"/>
<path d="M4025 2455 c-25 -24 -25 -26 -25 -215 0 -189 0 -191 25 -215 15 -16
36 -25 55 -25 19 0 40 9 55 25 25 24 25 26 25 215 0 189 0 191 -25 215 -15 16
-36 25 -55 25 -19 0 -40 -9 -55 -25z"/>
<path d="M4425 2455 l-25 -24 0 -271 0 -271 25 -24 c15 -16 36 -25 55 -25 19
0 40 9 55 25 l25 24 0 271 0 271 -25 24 c-15 16 -36 25 -55 25 -19 0 -40 -9
-55 -25z"/>
</g>
</svg>
